<svg id="Layer_1" data-name="Layer 1" xmlns="http://www.w3.org/2000/svg" viewBox="0 0 502.87 502.87">
  <path fill="#01579b" d="M102.56,400.31l-86-86C6.32,303.82,0,289,0,274.58c0-6.69,3.77-17.16,6.62-23.15L86,86Z"/>
  <path fill="#40c4ff" d="M397,102.56l-86-86C303.49,9,287.85,0,274.61,0c-11.38,0-22.55,2.29-29.76,6.62L86.07,86Z"/>
  <polygon fill="#40c4ff" points="205.11 502.87 413.55 502.87 413.55 413.55 258.05 363.9 115.79 413.55 205.11 502.87"/>
  <path fill="#29b6f6" d="M86,354c0,26.54,3.33,33.05,16.53,46.32l13.23,13.24H413.55L268,248.14,86,86Z"/>
  <path fill="#01579b" d="M350.7,86H86L413.55,413.51h89.32V208.4L397,102.52C382.12,87.62,368.92,86,350.7,86Z"/>
  <!-- Continúa para el resto de las etiquetas -->
</svg>
